<mxfile host="app.diagrams.net" agent="Mozilla/5.0 (Macintosh; Intel Mac OS X 10_15_7) AppleWebKit/605.1.15 (KHTML, like Gecko) Version/18.3.1 Safari/605.1.15" version="26.1.3">
  <diagram name="Page-1" id="fI6eqTWyxJ_w-LKGXDEJ">
    <mxGraphModel dx="1434" dy="827" grid="1" gridSize="10" guides="1" tooltips="1" connect="1" arrows="1" fold="1" page="1" pageScale="1" pageWidth="827" pageHeight="583" math="0" shadow="0">
      <root>
        <mxCell id="0" />
        <mxCell id="1" parent="0" />
        <mxCell id="BuqHo9B2dF4WPcyzyvta-1" value="SNS Topic" style="sketch=0;points=[[0,0,0],[0.25,0,0],[0.5,0,0],[0.75,0,0],[1,0,0],[0,1,0],[0.25,1,0],[0.5,1,0],[0.75,1,0],[1,1,0],[0,0.25,0],[0,0.5,0],[0,0.75,0],[1,0.25,0],[1,0.5,0],[1,0.75,0]];outlineConnect=0;fontColor=#232F3E;fillColor=#E7157B;strokeColor=#ffffff;dashed=0;verticalLabelPosition=bottom;verticalAlign=top;align=center;html=1;fontSize=12;fontStyle=0;aspect=fixed;shape=mxgraph.aws4.resourceIcon;resIcon=mxgraph.aws4.sns;" parent="1" vertex="1">
          <mxGeometry x="90" y="141" width="78" height="78" as="geometry" />
        </mxCell>
        <mxCell id="BuqHo9B2dF4WPcyzyvta-12" value="" style="edgeStyle=orthogonalEdgeStyle;rounded=0;orthogonalLoop=1;jettySize=auto;html=1;" parent="1" source="BuqHo9B2dF4WPcyzyvta-2" target="BuqHo9B2dF4WPcyzyvta-11" edge="1">
          <mxGeometry relative="1" as="geometry" />
        </mxCell>
        <mxCell id="BuqHo9B2dF4WPcyzyvta-2" value="Email Subscription" style="outlineConnect=0;dashed=0;verticalLabelPosition=bottom;verticalAlign=top;align=center;html=1;shape=mxgraph.aws3.email;fillColor=#D9A741;gradientColor=none;" parent="1" vertex="1">
          <mxGeometry x="237" y="149.25" width="81" height="61.5" as="geometry" />
        </mxCell>
        <mxCell id="BuqHo9B2dF4WPcyzyvta-3" style="edgeStyle=orthogonalEdgeStyle;rounded=0;orthogonalLoop=1;jettySize=auto;html=1;entryX=0.125;entryY=0.51;entryDx=0;entryDy=0;entryPerimeter=0;" parent="1" source="BuqHo9B2dF4WPcyzyvta-1" target="BuqHo9B2dF4WPcyzyvta-2" edge="1">
          <mxGeometry relative="1" as="geometry" />
        </mxCell>
        <mxCell id="BuqHo9B2dF4WPcyzyvta-14" value="Yes" style="edgeStyle=orthogonalEdgeStyle;rounded=0;orthogonalLoop=1;jettySize=auto;html=1;" parent="1" source="BuqHo9B2dF4WPcyzyvta-11" target="BuqHo9B2dF4WPcyzyvta-13" edge="1">
          <mxGeometry relative="1" as="geometry" />
        </mxCell>
        <mxCell id="BuqHo9B2dF4WPcyzyvta-19" value="No" style="edgeStyle=orthogonalEdgeStyle;rounded=0;orthogonalLoop=1;jettySize=auto;html=1;entryX=0;entryY=0.5;entryDx=0;entryDy=0;" parent="1" source="BuqHo9B2dF4WPcyzyvta-11" target="BuqHo9B2dF4WPcyzyvta-17" edge="1">
          <mxGeometry x="-0.4457" y="20" relative="1" as="geometry">
            <Array as="points">
              <mxPoint x="420" y="314" />
            </Array>
            <mxPoint as="offset" />
          </mxGeometry>
        </mxCell>
        <mxCell id="BuqHo9B2dF4WPcyzyvta-11" value="Filter Policy Exists" style="rhombus;whiteSpace=wrap;html=1;" parent="1" vertex="1">
          <mxGeometry x="380" y="140" width="80" height="80" as="geometry" />
        </mxCell>
        <mxCell id="BuqHo9B2dF4WPcyzyvta-16" value="No" style="edgeStyle=orthogonalEdgeStyle;rounded=0;orthogonalLoop=1;jettySize=auto;html=1;" parent="1" source="BuqHo9B2dF4WPcyzyvta-13" target="BuqHo9B2dF4WPcyzyvta-15" edge="1">
          <mxGeometry relative="1" as="geometry" />
        </mxCell>
        <mxCell id="BuqHo9B2dF4WPcyzyvta-18" value="" style="edgeStyle=orthogonalEdgeStyle;rounded=0;orthogonalLoop=1;jettySize=auto;html=1;" parent="1" source="BuqHo9B2dF4WPcyzyvta-13" target="BuqHo9B2dF4WPcyzyvta-17" edge="1">
          <mxGeometry relative="1" as="geometry" />
        </mxCell>
        <mxCell id="BuqHo9B2dF4WPcyzyvta-13" value="Matching&lt;div&gt;Policy&lt;/div&gt;" style="rhombus;whiteSpace=wrap;html=1;" parent="1" vertex="1">
          <mxGeometry x="530" y="140" width="80" height="80" as="geometry" />
        </mxCell>
        <mxCell id="BuqHo9B2dF4WPcyzyvta-15" value="Drop&lt;div&gt;Email&lt;/div&gt;" style="whiteSpace=wrap;html=1;fillColor=#60a917;fontColor=#ffffff;strokeColor=#2D7600;" parent="1" vertex="1">
          <mxGeometry x="670" y="149.25" width="90" height="60" as="geometry" />
        </mxCell>
        <mxCell id="BuqHo9B2dF4WPcyzyvta-17" value="Deliver&lt;div&gt;Email&lt;/div&gt;" style="whiteSpace=wrap;html=1;fillColor=#1ba1e2;fontColor=#ffffff;strokeColor=#006EAF;" parent="1" vertex="1">
          <mxGeometry x="510" y="284" width="120" height="60" as="geometry" />
        </mxCell>
      </root>
    </mxGraphModel>
  </diagram>
</mxfile>
